# xmcd
#
# Track frame offsets:
#	150
#	12592
#	25427
#	38307
#	53022
#	66765
#	80810
#	93960
#	106670
#	119985
#	132685
#	144627
#	158315
#	171465
#
# Disc length: 2423 seconds
#
# Revision: 1
# Processed by: cddbd v1.5.1PL0 Copyright (c) Steve Scherf et al.
# Submitted via: audiograbber 1.83.01
#
DISCID=be09750e
DTITLE=Muddy Waters - 20th Century Music Collection
DYEAR=1999
DGENRE=Blues
TTITLE0=I'm Your Hoochie Coochie Man
TTITLE1=I Got My Mojo Working
TTITLE2=Forty Days And Forty Nights
TTITLE3=Baby Please Don't Go
TTITLE4=I'm Ready
TTITLE5=Smokestack Lightnin'
TTITLE6=Manish Boy
TTITLE7=I Just Want To Make Love To You
TTITLE8=Rollin' And Tumblin
TTITLE9=Louisiana Blues
TTITLE10=Long-Distance Call
TTITLE11=I Want You To Love Me(Made Love)
TTITLE12=She Moves Me
TTITLE13=Evil
EXTD=Coletânea com os Clássicos do Muddy Waters
EXTT0=
EXTT1=
EXTT2=
EXTT3=
EXTT4=
EXTT5=
EXTT6=
EXTT7=
EXTT8=
EXTT9=
EXTT10=
EXTT11=
EXTT12=
EXTT13=
PLAYORDER=
